HIERARCHY
ROOT Hips
{
 OFFSET 0.000000 0.000000 0.000000
 CHANNELS 6 Xposition Yposition Zposition Yrotation Xrotation Zrotation
 JOINT Chest
 {
  OFFSET 0.000000 9.585900 0.002600
  CHANNELS 3 Yrotation Xrotation Zrotation
  JOINT Chest2
  {
   OFFSET 0.000000 9.601200 -0.005300
   CHANNELS 3 Yrotation Xrotation Zrotation
   JOINT Chest3
   {
    OFFSET 0.000000 9.561800 0.000000
    CHANNELS 3 Yrotation Xrotation Zrotation
    JOINT Chest4
    {
     OFFSET 0.000000 9.552100 0.000000
     CHANNELS 3 Yrotation Xrotation Zrotation
     JOINT Neck
     {
      OFFSET 0.000000 14.453000 0.000000
      CHANNELS 3 Yrotation Xrotation Zrotation
      JOINT Head
      {
       OFFSET 0.000000 8.936500 -0.011300
       CHANNELS 3 Yrotation Xrotation Zrotation
       End Site
       {
        OFFSET 0.000000 17.073600 -0.006000
       }
      }
     }
     JOINT RightCollar
     {
      OFFSET -2.921100 9.558500 0.000000
      CHANNELS 3 Yrotation Xrotation Zrotation
      JOINT RightShoulder
      {
       OFFSET -13.519700 0.000000 0.000000
       CHANNELS 3 Yrotation Xrotation Zrotation
       JOINT RightElbow
       {
        OFFSET 0.000000 -29.696600 0.000000
        CHANNELS 3 Yrotation Xrotation Zrotation
        JOINT RightWrist
        {
         OFFSET 0.000000 -24.004700 0.000000
         CHANNELS 3 Yrotation Xrotation Zrotation
         End Site
         {
          OFFSET 0.000000 -17.728500 0.000000
         }
        }
       }
      }
     }
     JOINT LeftCollar
     {
      OFFSET 2.921100 9.558500 0.000000
      CHANNELS 3 Yrotation Xrotation Zrotation
      JOINT LeftShoulder
      {
       OFFSET 13.519700 0.000000 0.000000
       CHANNELS 3 Yrotation Xrotation Zrotation
       JOINT LeftElbow
       {
        OFFSET 0.000000 -29.696600 0.000000
        CHANNELS 3 Yrotation Xrotation Zrotation
        JOINT LeftWrist
        {
         OFFSET 0.000000 -24.004700 0.000000
         CHANNELS 3 Yrotation Xrotation Zrotation
         End Site
         {
          OFFSET 0.000000 -17.728500 0.000000
         }
        }
       }
      }
     }
    }
   }
  }
 }
 JOINT RightHip
 {
  OFFSET -7.771700 -0.012900 -0.001300
  CHANNELS 3 Yrotation Xrotation Zrotation
  JOINT RightKnee
  {
   OFFSET 0.000000 -40.869800 0.001200
   CHANNELS 3 Yrotation Xrotation Zrotation
   JOINT RightAnkle
   {
    OFFSET 0.000000 -39.717900 0.002100
    CHANNELS 3 Yrotation Xrotation Zrotation
    JOINT RightToe
    {
     OFFSET 0.000000 -4.965400 11.033500
     CHANNELS 3 Yrotation Xrotation Zrotation
     End Site
     {
      OFFSET 0.000000 -1.423100 5.872300
     }
    }
   }
  }
 }
 JOINT LeftHip
 {
  OFFSET 7.771700 -0.012900 -0.001300
  CHANNELS 3 Yrotation Xrotation Zrotation
  JOINT LeftKnee
  {
   OFFSET 0.000000 -40.869800 0.001200
   CHANNELS 3 Yrotation Xrotation Zrotation
   JOINT LeftAnkle
   {
    OFFSET 0.000000 -39.717900 0.002100
    CHANNELS 3 Yrotation Xrotation Zrotation
    JOINT LeftToe
    {
     OFFSET 0.000000 -4.965400 11.033500
     CHANNELS 3 Yrotation Xrotation Zrotation
     End Site
     {
      OFFSET 0.000000 -1.423100 5.872300
     }
    }
   }
  }
 }
}
MOTION
Frames: 16
Frame Time: 0.008333
0.000000 85.388000 0.000000 0.000000 -5.767877 0.000000 0.000000 11.653817 0.000000 0.000000 -5.885947 0.000000 0.000000 -0.000000 0.000000 0.000000 -0.000000 0.000000 0.000000 12.528835 0.000000 0.000000 0.711642 0.000000 0.000000 -0.000000 0.000000 0.000000 0.000000 -90.000000 0.000000 -2.309062 0.000000 0.000000 2.309062 0.000000 0.000000 -0.000000 0.000000 0.000000 -0.000000 90.000000 0.000000 -2.309062 0.000000 0.000000 2.309062 0.000000 0.000000 8.520406 0.000000 0.000000 1.905762 0.000000 -0.000000 -4.658285 0.000000 0.000000 -0.000000 0.000000 0.000000 8.520406 0.000000 0.000000 1.905762 0.000000 -0.000000 -4.658285 0.000000 0.000000 -0.000000 0.000000
-27.967140 55.174854 -39.025745 -179.542683 -18.041770 -1.966356 0.931666 16.438843 0.241854 0.093930 1.659626 0.031662 0.154363 2.774894 0.066797 0.871394 14.546412 0.358221 -4.951806 15.554567 8.015903 -7.402946 -8.924188 10.082272 1.654877 1.991364 2.210519 3.338561 -10.174249 -8.610988 -109.179667 -71.201531 137.004674 -10.704019 -6.674701 0.091912 -6.850057 -1.023129 2.425723 2.415613 -12.435112 7.895651 75.871675 -55.210087 -118.088435 5.394623 -9.180925 5.523704 -0.124375 -57.001809 12.533435 -101.356290 88.041338 -106.265825 -9.853968 -22.090230 13.648948 0.025612 -0.061286 0.006476 9.080513 -53.730226 -4.741550 114.588472 77.544506 112.303680 -6.941195 -23.951361 0.977887 0.125778 0.291240 0.053513
-27.967814 55.174038 -39.026111 -179.541541 -18.041037 -1.968051 0.932379 16.438521 0.240371 0.093917 1.659425 0.031364 0.156555 2.772118 0.040284 0.871696 14.547095 0.360791 -5.053626 15.695354 7.960958 -7.501686 -8.766030 10.044295 1.649299 1.989631 2.230692 3.346221 -10.182352 -8.617955 -109.400831 -71.249818 137.230878 -10.670741 -6.648627 0.120680 -6.859712 -0.999135 2.420142 2.474865 -12.473599 7.867518 75.904178 -55.230157 -118.156973 5.393889 -9.093514 5.459404 -0.133272 -57.002992 12.537965 -101.424440 88.041856 -106.335927 -9.852798 -22.091063 13.648275 0.055468 -0.058279 0.008549 9.077427 -53.732911 -4.736684 114.600636 77.541910 112.311658 -6.940058 -23.951323 0.980813 0.120963 0.289843 0.052605
-27.965992 55.174064 -39.028733 -179.552506 -18.056558 -1.981960 0.947361 16.450888 0.243301 0.094246 1.659307 0.030208 0.158127 2.774044 0.051916 0.869065 14.548456 0.344064 -5.111022 15.812803 7.899403 -7.548896 -8.637953 9.992885 1.644429 1.987653 2.244030 3.352080 -10.190328 -8.625880 -109.574469 -71.284236 137.415515 -10.646700 -6.640761 0.141376 -6.876170 -0.977944 2.407945 2.513932 -12.487820 7.873770 75.974817 -55.225658 -118.248522 5.402986 -9.028313 5.433079 -0.153791 -56.986046 12.573552 -101.377508 88.043639 -106.288413 -9.867205 -22.089164 13.648737 0.009750 -0.056766 0.005513 9.061869 -53.721987 -4.703372 114.609808 77.537720 112.317912 -6.915432 -23.916865 0.985223 0.094211 0.253250 0.040196
-27.967671 55.173586 -39.029635 -179.550135 -18.063404 -1.979589 0.943306 16.456593 0.226992 0.094326 1.659880 0.028936 0.158429 2.774961 0.049717 0.873624 14.548636 0.353821 -5.127884 15.909335 7.828755 -7.549971 -8.538680 9.933209 1.631193 1.987452 2.237460 3.353135 -10.200417 -8.641573 -109.659347 -71.288460 137.520468 -10.634350 -6.641648 0.162795 -6.900799 -0.958800 2.384746 2.548755 -12.495981 7.886004 76.044426 -55.167473 -118.312023 5.382559 -8.939727 5.405266 -0.157346 -56.978703 12.564116 -101.519359 88.047793 -106.438558 -9.843393 -22.095047 13.649935 -0.029592 -0.055663 0.001298 9.061482 -53.714817 -4.706523 114.610847 77.535349 112.317383 -6.916654 -23.917768 0.985722 0.090170 0.253414 0.040692
-27.969109 55.173032 -39.029600 -179.550637 -18.067907 -1.978003 0.954970 16.463843 0.215405 0.094751 1.661496 0.024928 0.153603 2.774368 0.056387 0.874603 14.552201 0.344703 -5.104539 15.982133 7.781496 -7.510000 -8.463618 9.868384 1.618092 1.997303 2.243759 3.356833 -10.212781 -8.669134 -109.706548 -71.258928 137.580340 -10.633208 -6.644683 0.182686 -6.932287 -0.943857 2.384494 2.576400 -12.510806 7.902914 76.049673 -55.152964 -118.316879 5.382092 -8.915959 5.393644 -0.159443 -56.974815 12.576607 -101.462047 88.041348 -106.370175 -9.970405 -22.087486 13.677955 0.007275 -0.039704 0.002307 9.062503 -53.710426 -4.708206 114.612130 77.536738 112.321097 -6.919353 -23.918103 0.984078 0.094842 0.253980 0.041769
-27.970365 55.172567 -39.029001 -179.551212 -18.072735 -1.977481 0.957611 16.469055 0.213952 0.092212 1.660891 0.019491 0.160085 2.780245 0.045450 0.879395 14.561159 0.331387 -5.049462 16.032399 7.757850 -7.433968 -8.407776 9.798526 1.613114 1.989717 2.272079 3.356368 -10.211340 -8.678065 -109.739330 -71.242812 137.621669 -10.635282 -6.646894 0.192969 -6.963740 -0.932403 2.404380 2.607840 -12.511827 7.893075 76.022823 -55.133870 -118.285549 5.377766 -8.855162 5.391548 -0.160262 -56.971559 12.572751 -101.546062 88.048580 -106.447016 -10.014890 -22.085080 13.681536 0.008216 -0.035663 0.004247 9.064432 -53.706225 -4.709944 114.611653 77.537694 112.322552 -6.918585 -23.917941 0.986001 0.096077 0.254697 0.040159
-27.971239 55.172044 -39.027368 -179.549872 -18.074808 -1.979624 0.955569 16.469397 0.207695 0.087481 1.660854 0.023434 0.160342 2.782304 0.045151 0.884559 14.563591 0.330362 -4.972825 16.078969 7.715980 -7.328935 -8.367114 9.725226 1.612010 2.008944 2.266429 3.358521 -10.229586 -8.673720 -109.746756 -71.235670 137.632455 -10.635888 -6.647481 0.195204 -6.974052 -0.922838 2.402693 2.576847 -12.468117 7.844704 76.034989 -55.166102 -118.246699 5.372340 -8.789239 5.409889 -0.173779 -56.966747 12.575790 -101.510208 88.059014 -106.415397 -10.023806 -22.093043 13.691841 0.006652 -0.029224 -0.002630 9.072478 -53.707740 -4.714276 114.618057 77.544658 112.331473 -6.906695 -23.908649 0.989440 0.093204 0.250420 0.039185
-27.972012 55.171853 -39.026024 -179.557928 -18.082245 -1.979127 0.948036 16.469662 0.202999 0.099049 1.666775 0.025139 0.156472 2.783336 0.046237 0.888102 14.565062 0.326827 -4.877950 16.116494 7.683452 -7.204735 -8.338658 9.652816 1.612680 2.036055 2.262902 3.361593 -10.237421 -8.690606 -109.727290 -71.191239 137.614981 -10.647633 -6.652301 0.210841 -6.982526 -0.911854 2.399284 2.550983 -12.452068 7.823288 75.998216 -55.176318 -118.165668 5.365133 -8.721065 5.428914 -0.176742 -56.960114 12.583486 -101.424996 88.056910 -106.327501 -10.057700 -22.088491 13.697932 0.007783 -0.027815 -0.001796 9.086356 -53.703201 -4.716629 114.615326 77.542905 112.334208 -6.908227 -23.901233 0.990699 0.088389 0.246388 0.038965
-27.972881 55.172227 -39.025747 -179.563518 -18.098504 -1.978292 0.950678 16.484086 0.204144 0.098824 1.667899 0.024949 0.154271 2.783598 0.047160 0.884068 14.571981 0.327202 -4.771320 16.139852 7.653691 -7.072299 -8.320856 9.583623 1.626888 2.097808 2.260097 3.341546 -10.243673 -8.717233 -109.775105 -71.132688 137.681218 -10.682479 -6.664932 0.184506 -6.988643 -0.892077 2.387730 2.524594 -12.452096 7.803635 75.948480 -55.190289 -118.068105 5.351991 -8.635628 5.446533 -0.178338 -56.943750 12.585842 -101.370351 88.059508 -106.272968 -10.065296 -22.086386 13.701630 -0.008446 -0.029827 -0.005130 9.097986 -53.688235 -4.720438 114.607282 77.540353 112.332593 -6.903279 -23.896586 0.990158 0.083354 0.242978 0.036902
-27.973665 55.172157 -39.023591 -179.564809 -18.103624 -1.978348 0.948835 16.487217 0.204888 0.085131 1.667532 0.033363 0.168756 2.785672 0.037774 0.859703 14.584774 0.338800 -4.652479 16.150612 7.616395 -6.938850 -8.312167 9.517680 1.654325 2.105023 2.240789 3.324658 -10.222754 -8.721573 -109.757403 -71.103286 137.671920 -10.685063 -6.674174 0.159993 -6.962852 -0.880830 2.364951 2.486134 -12.455136 7.781061 75.890764 -55.207176 -117.964773 5.335440 -8.532557 5.462758 -0.182892 -56.938849 12.582543 -101.355041 88.065084 -106.262656 -10.037175 -22.085786 13.700752 -0.039084 -0.034508 -0.012647 9.107888 -53.684693 -4.726294 114.579461 77.533391 112.311086 -6.909791 -23.892823 0.990043 0.087257 0.243245 0.037004
-27.974493 55.172363 -39.021811 -179.570334 -18.110562 -1.975734 0.945100 16.492378 0.209064 0.081296 1.671077 0.032327 0.171271 2.786517 0.039176 0.858356 14.587078 0.334027 -4.597659 16.156757 7.602258 -6.766280 -8.295420 9.436179 1.670195 2.153683 2.231130 3.304686 -10.242985 -8.721016 -109.732391 -71.086218 137.644831 -10.672494 -6.687823 0.149110 -6.954716 -0.862107 2.352887 2.468162 -12.469038 7.772943 75.807998 -55.209882 -117.855751 5.316228 -8.420713 5.472447 -0.183503 -56.932490 12.578042 -101.324233 88.071892 -106.233696 -10.015544 -22.084628 13.695334 0.008682 -0.034022 -0.009190 9.123442 -53.678870 -4.729661 114.581889 77.531417 112.313084 -6.911156 -23.890758 0.996999 0.086859 0.241642 0.035642
-27.974469 55.173114 -39.021113 -179.576380 -18.122223 -1.976841 0.939805 16.504581 0.214430 0.079705 1.673457 0.032755 0.170165 2.788094 0.039122 0.859748 14.587840 0.330450 -4.482897 16.177723 7.583534 -6.671227 -8.301890 9.391585 1.688515 2.191959 2.222923 3.272171 -10.237423 -8.712154 -109.637544 -71.089897 137.529921 -10.641394 -6.736772 0.205074 -6.944354 -0.830141 2.332352 2.450971 -12.496605 7.773442 75.778997 -55.221644 -117.806610 5.310137 -8.284936 5.486996 -0.183438 -56.919936 12.578780 -101.207237 88.071994 -106.119051 -9.985942 -22.083875 13.694101 0.027208 -0.035757 -0.005320 9.128183 -53.667575 -4.722994 114.590575 77.539220 112.324443 -6.904180 -23.892786 0.993176 0.086191 0.244186 0.039466
-27.974893 55.173891 -39.020059 -179.581197 -18.128323 -1.974337 0.929903 16.511589 0.215846 0.082959 1.676740 0.031294 0.164544 2.790011 0.041726 0.839943 14.608571 0.342129 -4.364433 16.175469 7.545738 -6.591514 -8.307195 9.353341 1.722702 2.177280 2.192983 3.241828 -10.198171 -8.699395 -109.643743 -71.099536 137.535981 -10.625798 -6.746104 0.191351 -6.910824 -0.855181 2.303008 2.428720 -12.481762 7.755404 75.702311 -55.241920 -117.701756 5.285910 -8.182553 5.470251 -0.178823 -56.913193 12.579134 -101.056657 88.069721 -105.969094 -9.993623 -22.080142 13.702903 -0.014649 -0.038244 -0.011245 9.137682 -53.660598 -4.724009 114.588056 77.542399 112.320932 -6.898932 -23.894839 0.995204 0.084381 0.244096 0.038433
-27.974262 55.175081 -39.019647 -179.583683 -18.134396 -1.977644 0.920202 16.525110 0.223533 0.091793 1.675101 0.027503 0.156536 2.791024 0.043931 0.842588 14.615083 0.341263 -4.324987 16.172305 7.534694 -6.546383 -8.305796 9.332120 1.747878 2.211849 2.184185 3.208058 -10.191000 -8.691598 -109.640780 -71.109269 137.519342 -10.619907 -6.707256 0.111986 -6.899792 -0.848421 2.279506 2.414405 -12.485384 7.753037 75.627122 -55.260279 -117.615123 5.265347 -8.087652 5.442779 -0.184369 -56.905471 12.589624 -100.899814 88.070102 -105.809181 -10.011097 -22.074442 13.703805 -0.029576 -0.040644 -0.009856 9.140144 -53.652646 -4.712613 114.574632 77.543823 112.311779 -6.915881 -23.899597 0.994682 0.094359 0.247530 0.042819
-27.975188 55.176184 -39.018626 -179.574932 -18.131929 -1.973985 0.911417 16.527724 0.218724 0.091358 1.675968 0.027570 0.153134 2.800692 0.046893 0.840515 14.614089 0.337116 -4.290799 16.168878 7.528879 -6.506054 -8.304043 9.312585 1.776847 2.279134 2.177743 3.172207 -10.204136 -8.683369 -109.650586 -71.112493 137.510127 -10.614668 -6.696376 0.108972 -6.877367 -0.805772 2.233387 2.382494 -12.503699 7.763919 75.643395 -55.302139 -117.629481 5.261932 -7.982980 5.418576 -0.183748 -56.905612 12.574427 -100.862934 88.072330 -105.773520 -9.999167 -22.075591 13.703845 -0.030064 -0.041800 -0.012091 9.151186 -53.652169 -4.726887 114.556449 77.549393 112.293091 -6.914587 -23.896997 1.001928 0.091254 0.248098 0.041016
